# AST/ASF file generated using VICON BodyLanguage
# -----------------------------------------------
:version 1.10
:name VICON
:units
  mass 1.0
  length 0.45
  angle deg
:documentation
   .ast/.asf automatically generated from VICON data using
   VICON BodyBuilder and BodyLanguage model FoxedUp or BRILLIANT.MOD
:root
   order TX TY TZ RX RY RZ
   axis XYZ
   position 0 0 0  
   orientation 0 0 0 
:bonedata
  begin
     id 1 
     name lhipjoint
     direction 0.440178 -0.822639 0.359871 
     length 2.53113 
     axis 0 0 0  XYZ
  end
  begin
     id 2 
     name lfemur
     direction 0.34202 -0.939693 0  
     length 7.88132  
     axis 0 0 20  XYZ
    dof rx ry rz
    limits (-160.0 20.0)
           (-70.0 70.0)
           (-60.0 70.0)
  end
  begin
     id 3 
     name ltibia
     direction 0.34202 -0.939693 0   
     length 8.43783   
     axis 0 0 20   XYZ
    dof rx
    limits (-10.0 170.0)
  end
  begin
     id 4 
     name lfoot
     direction 0.0886351 -0.243523 0.965837   
     length 2.63414   
     axis -90 7.62852e-016 20   XYZ
    dof rx rz
    limits (-45.0 90.0)
           (-70.0 20.0)
  end
  begin
     id 5 
     name ltoes
     direction 1.53703e-011 -4.21717e-011 1   
     length 1.31427   
     axis -90 7.62852e-016 20   XYZ
    dof rx
    limits (-90.0 20.0)
  end
  begin
     id 6 
     name rhipjoint
     direction -0.399779 -0.839773 0.367367   
     length 2.47948  
     axis 0 0 0  XYZ 
  end
  begin
     id 7 
     name rfemur
     direction -0.34202 -0.939693 0   
     length 7.74806   
     axis 0 0 -20   XYZ
    dof rx ry rz
    limits (-160.0 20.0)
           (-70.0 70.0)
           (-70.0 60.0)
  end
  begin
     id 8 
     name rtibia
     direction -0.34202 -0.939693 0   
     length 8.74432   
     axis 0 0 -20   XYZ
    dof rx
    limits (-10.0 170.0)
 end
 begin
     id 9 
     name rfoot
     direction -0.108514 -0.298139 0.948334   
     length 2.66102  
     axis -90 -7.62852e-016 -20   XYZ
    dof rx rz
    limits (-45.0 90.0)
           (-20.0 70.0)
  end
  begin
     id 10 
     name rtoes
     direction -1.53392e-011 -4.22077e-011 1   
     length 1.31983   
     axis -90 -7.62852e-016 -20   XYZ
    dof rx
    limits (-90.0 20.0)
  end
  begin
     id 11 
     name lowerback
     direction 0.0113257 0.999866 0.0118602   
     length 2.58694   
     axis 0 0 0   XYZ
    dof rx ry rz
    limits (-20.0 45.0)
           (-30.0 30.0)
           (-30.0 30.0)
  end
  begin
     id 12 
     name upperback
     direction -0.0164747 0.995193 -0.0965375   
     length 2.52368   
     axis 0 0 0   XYZ
    dof rx ry rz
    limits (-20.0 45.0)
           (-30.0 30.0)
           (-30.0 30.0)
  end
  begin
     id 13 
     name thorax
     direction -0.0194301 0.99433 -0.104552   
     length 2.56099   
     axis 0 0 0   XYZ
    dof rx ry rz
    limits (-20.0 45.0)
           (-30.0 30.0)
           (-30.0 30.0)
  end
  begin
     id 14 
     name lowerneck
     direction 0.0148543 0.995587 -0.092657   
     length 1.71582   
     axis 0 0 0   XYZ
    dof rx ry rz
    limits (-20.0 45.0)
           (-30.0 30.0)
           (-30.0 30.0)
  end
  begin
     id 15 
     name upperneck
     direction -0.0135467 0.993656 -0.111639   
     length 1.68937   
     axis 0 0 0   XYZ
    dof rx ry rz
    limits (-20.0 45.0)
           (-30.0 30.0)
           (-30.0 30.0)
  end
  begin
     id 16
     name head
     direction -0.00615349 0.999547 -0.029448  
     length 1.7462  
     axis 0 0 0   XYZ
    dof rx ry rz
    limits (-20.0 45.0)
           (-30.0 30.0)
           (-30.0 30.0)
  end
  begin
     id 17 
     name lclavicle
     direction 0.988267 0.149885 0.0293713  
     length 4.47222  
     axis 0 0 0   XYZ
    dof ry rz
    limits (-20.0 10.0)
           (0.0 20.0)
  end
  begin
     id 18 
     name lhumerus
     direction 1 -4.48986e-011 -1.14833e-027   
     length 5.37148   
     axis 180 -30 -90   XYZ
    dof rx ry rz
    limits (-60.0 90.0)
           (-90.0 90.0)
           (-90.0 90.0)
  end
  begin
     id 19
     name lradius
     direction 0.999998 0.00170963 -0.000987055   
     length 3.94212   
     axis 180 -30 -90   XYZ
    dof rx
    limits (-10.0 170.0)
  end
  begin
     id 20
     name lwrist
     direction 0.999998 7.53149e-005 -0.00194706   
     length 1.97106   
     axis 4.65056e-015 90 90   XYZ
    dof ry
    limits (-180.0 0.0)
 end
  begin
     id 21 
     name lhand
     direction 1 -4.48973e-011 -1.31746e-026   
     length 1.17917   
     axis 8.4065e-015 90 90   XYZ
    dof rx rz
    limits (-90.0 90.0)
           (-45.0 45.0)
  end
  begin
     id 22 
     name lfingers
     direction 1 -4.49107e-011 -2.63492e-026   
     length 0.950679   
     axis 1.6813e-014 90 90   XYZ
    dof rx
    limits (0.0 90.0)
  end
  begin
     id 23
     name lthumb
     direction 0.707107 -6.35048e-011 0.707107   
     length 1.36499   
     axis -90 45 2.85299e-015   XYZ
    dof rx rz
    limits (-45.0 45.0)
           (-45.0 45.0)
  end
  begin
     id 24 
     name rclavicle
     direction -0.996699 0.0642895 -0.0495725   
     length 4.62611  
     axis 0 0 0   XYZ 
    dof ry rz
    limits (-10.0 20.0)
           (-20.0 0.0)
  end
  begin
     id 25 
     name rhumerus
     direction -1 -4.48919e-011 -2.41059e-027  
     length 5.4981   
     axis 180 30 90   XYZ
    dof rx ry rz
    limits (-90.0 60.0)
           (-90.0 90.0)
           (-90.0 90.0)
  end
  begin
     id 26 
     name rradius
     direction -0.999999 0.00118101 -0.000681858   
     length 3.48381   
     axis 180 30 90   XYZ
    dof rx
    limits (-10.0 170.0)
  end
  begin
     id 27 
     name rwrist
     direction -0.999999 0.000321823 -0.00132288   
     length 1.7419   
     axis 4.65056e-015 -90 -90   XYZ
    dof ry
    limits (-180.0 0.0)
  end
  begin
     id 28
     name rhand
     direction -1 -4.49022e-011 -1.31746e-026   
     length 1.34932   
     axis 8.4065e-015 -90 -90   XYZ
    dof rx rz
    limits (-90.0 90.0)
           (-45.0 45.0)
  end
  begin
     id 29
     name rfingers
     direction -1 -4.49178e-011 -2.63492e-026   
     length 1.08785   
     axis 1.6813e-014 -90 -90   XYZ
    dof rx
    limits (0.0 90.0)
  end
  begin
     id 30
     name rthumb
     direction -0.707107 -6.34713e-011 0.707107   
     length 1.56195   
     axis -90 -45 -2.85299e-015   XYZ
    dof rx rz
    limits (-45.0 45.0)
           (-45.0 45.0)
  end
:hierarchy
  begin
    root lhipjoint rhipjoint lowerback
    lhipjoint lfemur
    lfemur ltibia
    ltibia lfoot
    lfoot ltoes
    rhipjoint rfemur
    rfemur rtibia
    rtibia rfoot
    rfoot rtoes
    lowerback upperback
    upperback thorax
    thorax lowerneck lclavicle rclavicle
    lowerneck upperneck
    upperneck head
    lclavicle lhumerus
    lhumerus lradius
    lradius lwrist
    lwrist lhand lthumb
    lhand lfingers
    rclavicle rhumerus
    rhumerus rradius
    rradius rwrist
    rwrist rhand rthumb
    rhand rfingers
  end

#!OML:ASF X:\für Bonn\!DataBase\2005_08_10_Bjorn_Final\c3d\bjorn.ASF
:FULLY-SPECIFIED
:DEGREES
1
root -4.934 19.1759 -1.80026 1811.61 -82.8118 -375.063
lowerback -2.5503 -0.873737 4.54071
upperback 7.68246 -1.79451 1.06823
thorax 9.47118 -0.664471 -1.60742
lowerneck -8.68517 -0.516657 6.01787
upperneck 5.5584 -1.24156 -2.22748
head 3.3088 -0.572781 -1.87838
rclavicle 2.48481e-015 -2.62396e-014
rhumerus -33.5177 -22.9358 -79.7003
rradius 24.7762
rwrist 3.25011
rhand -11.5874 9.1158
rfingers 7.12502
rthumb 14.4546 -20.3608
lclavicle 2.48481e-015 -2.62396e-014
lhumerus -28.5591 23.575 77.9704
lradius 15.7292
lwrist -49.36
lhand -6.68163 -5.20108
lfingers 7.12502
lthumb 19.177 23.8735
rfemur -14.5179 -3.70802 20.2343
rtibia 31.3061
rfoot -8.45538 8.95574
rtoes 1.30713
lfemur 0.681977 -0.422354 -14.3466
ltibia 58.8793
lfoot 9.27939 -1.00936
ltoes -7.30394
2
root -5.09323 19.1955 -1.79687 1811.25 -82.9018 -374.745
lowerback -2.45864 -0.790636 4.4928
upperback 7.69345 -1.67193 1.0375
thorax 9.43583 -0.607753 -1.5988
lowerneck -8.71642 -0.553808 6.00416
upperneck 5.56103 -1.29129 -2.23019
head 3.31335 -0.597901 -1.87994
rclavicle 1.2921e-014 -4.77083e-015
rhumerus -32.9802 -21.9916 -80.4869
rradius 25.6236
rwrist 2.44254
rhand -11.9586 9.33054
rfingers 7.12502
rthumb 14.0969 -20.1713
lclavicle 1.2921e-014 -4.77083e-015
lhumerus -28.9538 23.9719 77.6704
lradius 15.3424
lwrist -50.519
lhand -5.91739 -4.65296
lfingers 7.12502
lthumb 19.9118 24.347
rfemur -13.7082 -3.61853 20.1976
rtibia 30.9436
rfoot -8.88568 9.03853
rtoes 1.16794
lfemur -0.551907 0.128849 -14.3087
ltibia 59.7247
lfoot 7.8414 -0.891782
ltoes -8.35961
3
root -5.25065 19.2138 -1.79435 1810.92 -82.9932 -374.448
lowerback -2.37641 -0.700579 4.42412
upperback 7.70553 -1.54021 1.01831
thorax 9.40841 -0.548422 -1.56586
lowerneck -8.73911 -0.601892 5.9959
upperneck 5.53566 -1.35277 -2.26987
head 3.30598 -0.630633 -1.89501
rclavicle 3.97569e-015 2.90226e-014
rhumerus -32.461 -21.1031 -81.2002
rradius 26.4522
rwrist 1.67574
rhand -12.3454 9.49136
rfingers 7.12502
rthumb 13.7241 -20.0361
lclavicle 3.97569e-015 2.90226e-014
lhumerus -29.3518 24.1774 77.4615
lradius 15.1152
lwrist -51.5838
lhand -5.15161 -4.105
lfingers 7.12502
lthumb 20.6477 24.8167
rfemur -12.9303 -3.55284 20.1746
rtibia 30.5951
rfoot -9.33111 9.12467
rtoes 0.679563
lfemur -1.81577 0.675195 -14.28
ltibia 60.4359
lfoot 6.56889 -0.830883
ltoes -9.58709
4
root -5.40592 19.2294 -1.79042 1810.64 -83.1139 -374.192
lowerback -2.27451 -0.599758 4.37906
upperback 7.69521 -1.39104 0.97865
thorax 9.3444 -0.478447 -1.56573
lowerneck -8.68479 -0.656836 5.98128
upperneck 5.47116 -1.42066 -2.27278
head 3.26977 -0.665624 -1.89489
rclavicle -4.07509e-015 5.96354e-015
rhumerus -31.9996 -20.184 -81.895
rradius 27.3022
rwrist 0.913656
rhand -12.7048 9.57597
rfingers 7.12502
rthumb 13.3777 -19.9745
lclavicle -4.07509e-015 5.96354e-015
lhumerus -29.8056 24.3387 77.2141
lradius 14.9613
lwrist -52.6039
lhand -4.49313 -3.74357
lfingers 7.12502
lthumb 21.2804 25.1081
rfemur -12.1803 -3.49959 20.1387
rtibia 30.266
rfoot -9.71446 9.24127
rtoes 0.449485
lfemur -3.1088 1.2678 -14.2672
ltibia 61.0255
lfoot 5.40646 -0.896534
ltoes -10.4332
5
root -5.56053 19.2428 -1.78672 1810.17 -83.2279 -373.744
lowerback -2.19743 -0.50544 4.30518
upperback 7.70253 -1.24971 0.919889
thorax 9.31411 -0.412706 -1.57144
lowerneck -8.62662 -0.71042 6.04527
upperneck 5.38585 -1.49032 -2.3486
head 3.22564 -0.70299 -1.93331
rclavicle 4.57205e-015 -1.15295e-014
rhumerus -31.5333 -19.4161 -82.5554
rradius 28.1152
rwrist 0.290303
rhand -13.0137 9.62019
rfingers 7.12502
rthumb 13.08 -19.9496
lclavicle 4.57205e-015 -1.15295e-014
lhumerus -30.2213 24.4819 76.9503
lradius 14.8258
lwrist -53.5435
lhand -4.05385 -3.54586
lfingers 7.12502
lthumb 21.7023 25.2577
rfemur -11.4549 -3.44697 20.0799
rtibia 29.9736
rfoot -10.121 9.35239
rtoes 0.162335
lfemur -4.41465 1.81977 -14.2988
ltibia 61.4778
lfoot 4.29569 -1.08549
ltoes -10.4308
6
root -5.71437 19.2528 -1.7823 1809.86 -83.3458 -373.448
lowerback -2.12177 -0.409743 4.2412
upperback 7.69972 -1.10854 0.881234
thorax 9.27376 -0.347424 -1.56155
lowerneck -8.61964 -0.769113 6.08877
upperneck 5.35357 -1.56511 -2.45791
head 3.20942 -0.743955 -1.98128
rclavicle 1.06847e-014 -8.34896e-015
rhumerus -31.0853 -18.5263 -83.1735
rradius 28.9495
rwrist -0.372331
rhand -13.2796 9.62267
rfingers 7.12502
rthumb 12.8236 -19.9634
lclavicle 1.06847e-014 -8.34896e-015
lhumerus -30.675 24.6077 76.7199
lradius 14.7527
lwrist -54.3454
lhand -3.86284 -3.43874
lfingers 7.12502
lthumb 21.8857 25.3435
rfemur -10.7647 -3.37997 20.0348
rtibia 29.7263
rfoot -10.534 9.46723
rtoes 0.119909
lfemur -5.74195 2.39878 -14.3291
ltibia 61.7902
lfoot 3.19207 -1.39381
ltoes -10.5975
7
root -5.86647 19.2583 -1.77791 1809.37 -83.4773 -372.975
lowerback -2.02969 -0.306193 4.17036
upperback 7.66966 -0.950655 0.812193
thorax 9.19375 -0.273544 -1.57827
lowerneck -8.48608 -0.838359 6.16058
upperneck 5.27523 -1.65006 -2.55813
head 3.15227 -0.789282 -2.02871
rclavicle -1.02374e-014 -2.0276e-014
rhumerus -30.7027 -17.7745 -83.743
rradius 29.7421
rwrist -0.949139
rhand -13.4981 9.67377
rfingers 7.12502
rthumb 12.6131 -19.9254
lclavicle -1.02374e-014 -2.0276e-014
lhumerus -31.1724 24.6147 76.4592
lradius 14.7079
lwrist -54.8133
lhand -3.93205 -3.57238
lfingers 7.12502
lthumb 21.8192 25.2176
rfemur -10.1187 -3.34449 19.9615
rtibia 29.5438
rfoot -10.9579 9.61706
rtoes -0.0174731
lfemur -7.04568 2.96752 -14.4038
ltibia 61.9451
lfoot 2.05661 -1.74154
ltoes -10.9467
8
root -6.01721 19.2595 -1.77345 1809.24 -83.6014 -372.861
lowerback -1.93973 -0.206941 4.1116
upperback 7.65163 -0.8045 0.783089
thorax 9.12839 -0.206238 -1.56101
lowerneck -8.36819 -0.909549 6.19402
upperneck 5.16774 -1.73046 -2.70949
head 3.08828 -0.835553 -2.08572
rclavicle 8.49804e-015 1.63003e-014
rhumerus -30.3022 -17.0126 -84.2486
rradius 30.5472
rwrist -1.48931
rhand -13.6553 9.65675
rfingers 7.12502
rthumb 12.4615 -19.9517
lclavicle 8.49804e-015 1.63003e-014
lhumerus -31.6455 24.5605 76.2982
lradius 14.7054
lwrist -55.0766
lhand -4.22173 -3.74928
lfingers 7.12502
lthumb 21.541 25.0728
rfemur -9.5171 -3.33945 19.9305
rtibia 29.4356
rfoot -11.4199 9.82499
rtoes -0.203729
lfemur -8.30557 3.50756 -14.4559
ltibia 61.941
lfoot 0.927053 -2.11213
ltoes -12.2225
9
root -6.16695 19.2558 -1.76826 1809.11 -83.7321 -372.728
lowerback -1.89402 -0.105845 4.06625
upperback 7.65361 -0.658279 0.727898
thorax 9.11121 -0.135639 -1.57963
lowerneck -8.33296 -0.972535 6.25633
upperneck 5.08731 -1.81068 -2.83425
head 3.04948 -0.879955 -2.14098
rclavicle 4.52235e-015 -1.98785e-015
rhumerus -29.835 -16.2938 -84.7735
rradius 31.3019
rwrist -2.01283
rhand -13.789 9.66588
rfingers 7.12502
rthumb 12.3326 -19.9504
lclavicle 4.52235e-015 -1.98785e-015
lhumerus -32.029 24.4434 76.1413
lradius 14.6969
lwrist -55.1478
lhand -4.65074 -4.00753
lfingers 7.12502
lthumb 21.129 24.8612
rfemur -8.97889 -3.37172 19.8827
rtibia 29.3982
rfoot -11.8827 10.0782
rtoes -0.0851436
lfemur -9.53951 4.04793 -14.5237
ltibia 61.7786
lfoot -0.206574 -2.4676
ltoes -13.7787
